<?xml version="1.0" encoding="UTF-8" standalone="no"?>
<svg
   version="1.1"
   viewBox="-5 -10 100 100"
   id="svg3"
   sodipodi:docname="ash-edit.svg"
   inkscape:version="1.2.2 (b0a8486541, 2022-12-01)"
   width="100"
   height="100"
   xmlns:inkscape="http://www.inkscape.org/namespaces/inkscape"
   xmlns:sodipodi="http://sodipodi.sourceforge.net/DTD/sodipodi-0.dtd"
   xmlns="http://www.w3.org/2000/svg"
   xmlns:svg="http://www.w3.org/2000/svg">
  <defs
     id="defs3">
    <inkscape:path-effect
       effect="powerclip"
       id="path-effect3323"
       is_visible="true"
       lpeversion="1"
       inverse="true"
       flatten="false"
       hide_clip="false"
       message="Use fill-rule evenodd on &lt;b&gt;fill and stroke&lt;/b&gt; dialog if no flatten result after convert clip to paths." />
    <clipPath
       clipPathUnits="userSpaceOnUse"
       id="clipPath3319">
      <rect
         style="display:none;fill:#ff00ff;fill-opacity:1;stroke:none;stroke-width:2.19651;stroke-linecap:round;stroke-linejoin:round;stroke-dasharray:none;stroke-opacity:1"
         id="rect3321"
         width="27.049133"
         height="9.8458385"
         x="52.274734"
         y="56.716599"
         inkscape:label="blocking"
         d="m 52.274734,56.716599 h 27.049134 v 9.845838 H 52.274734 Z" />
      <path
         id="lpe_path-effect3323"
         style="fill:#ff00ff;fill-opacity:1;stroke:none;stroke-width:2.19651;stroke-linecap:round;stroke-linejoin:round;stroke-dasharray:none;stroke-opacity:1"
         class="powerclip"
         d="M 49.927204,34.814926 H 84.137237 V 66.129238 H 49.927204 Z m 2.34753,21.901673 v 9.845838 h 27.049134 v -9.845838 z" />
    </clipPath>
  </defs>
  <sodipodi:namedview
     id="namedview3"
     pagecolor="#ffffff"
     bordercolor="#666666"
     borderopacity="1.0"
     inkscape:showpageshadow="2"
     inkscape:pageopacity="0.0"
     inkscape:pagecheckerboard="0"
     inkscape:deskcolor="#d1d1d1"
     showgrid="false"
     inkscape:zoom="6.0505212"
     inkscape:cx="40.161829"
     inkscape:cy="30.245328"
     inkscape:window-width="1920"
     inkscape:window-height="1055"
     inkscape:window-x="0"
     inkscape:window-y="0"
     inkscape:window-maximized="1"
     inkscape:current-layer="layer1" />
  <g
     inkscape:groupmode="layer"
     id="layer1"
     inkscape:label="logo"
     transform="translate(0.53491306,0.91577244)">
    <path
       d="m 37.10736,78.975351 9.316319,-9.555059 11.975522,-11.618465 c 1.633569,-1.584863 0.263167,-5.945807 -0.471133,-7.953607 -2.919111,-3.841162 -5.847992,-5.837322 -8.359538,-4.424239 -7.430047,4.180402 -3.427927,4.300503 -8.353898,0.630062 l -6.001007,-6.448009 c -2.054894,-2.207959 -4.306184,-1.198152 -6.446784,0.946378 l -1.8555,1.8555 -1.266954,2.062062 c -1.18572,1.929847 -2.349215,2.052103 -3.960809,3.643646 l -1.064599,1.051354 c -0.891913,0.810413 -1.458811,1.081376 -2.278857,1.898184 l -1.108431,1.024404 c -1.0352,1.0312 -1.6016,2.4141 -1.6016,3.8867 v 7.5352 c -0.01953,0.91797 0.421207,2.332495 0.858707,3.144995 3.029957,3.353969 12.086718,12.689785 13.033539,13.444789 1.455735,1.160817 2.580207,1.124356 3.733865,1.025989 1.153657,-0.09837 2.454358,-0.729831 3.851158,-2.149884 z"
       id="path318"
       sodipodi:nodetypes="ccscscsccsscccsccssc"
       class="UnoptimicedTransforms"
       style="fill:#a32929;fill-opacity:1"
       transform="matrix(0.95,0,0,0.95,-4.2199648,-5.064142)"
       inkscape:label="red" />
    <path
       style="fill:#cccccc;fill-opacity:1"
       d="m 32.268182,36.713219 5.765211,5.807785 5.003857,-4.641961 2.500928,-0.394803 6.643681,6.338124 L 83.69599,11.263191 83.47958,3.83718 79.79273,-0.142528 75.250016,-2.186191 69.318109,-0.061751 33.19212,36.359001"
       id="path3134"
       inkscape:label="silver" />
    <path
       d="m 36.989501,79.446542 9.3867,-9.3828 12.023,-12.023 c 1.6094,-1.6094 2.0312,-3.9453 1.2969,-5.9531 l 1.1797,-1.1797 2.4023,2.4062 c 0.30469,0.30469 0.70312,0.45703 1.1055,0.45703 0.39844,0 0.80078,-0.15234 1.1055,-0.45703 0.60938,-0.60938 0.60938,-1.5977 0,-2.2109 l -2.4023,-2.4062 4.4023,-4.4023 2.4023,2.4062 c 0.30469,0.30469 0.70312,0.45703 1.1055,0.45703 0.39844,0 0.80078,-0.15234 1.1055,-0.45703 0.60938,-0.60938 0.60938,-1.5977 0,-2.2109 l -2.4023,-2.4062 4.4023,-4.4023 2.4023,2.4062 c 0.30469,0.30469 0.70312,0.45703 1.1055,0.45703 0.39844,0 0.80078,-0.15234 1.1055,-0.45703 0.60938,-0.60938 0.60938,-1.5977 0,-2.2109 l -2.4023,-2.4062 4.4023,-4.4023 2.4023,2.4062 c 0.30469,0.30469 0.70312,0.45703 1.1055,0.45703 0.39844,0 0.80078,-0.15234 1.1055,-0.45703 0.60938,-0.60938 0.60938,-1.5977 0,-2.2109 l -2.4023,-2.4062 4.4023,-4.4023 2.4062,2.4062 c 0.30469,0.30469 0.70312,0.45703 1.1055,0.45703 0.39844,0 0.80078,-0.15234 1.1055,-0.45703 0.60938,-0.60937 0.60938,-1.5977 0,-2.2109 l -2.4922,-2.4922 c 1.1094,-1.4844 1.7891,-3.1797 2.043,-4.9336 l 3.5625,0.45312 c 0.06641,0.0078 0.13281,0.01172 0.19922,0.01172 0.77344,0 1.4492,-0.57813 1.5469,-1.3672 0.10937,-0.85547 -0.5,-1.6367 -1.3555,-1.7461 l -3.9531,-0.5 c -0.25391,-1.75 -0.93359,-3.4492 -2.043,-4.9297003 l 2.2383,-2.2383 c 0.60938,-0.60938 0.60938,-1.6016 0,-2.2109 -0.60938,-0.6093 -1.5977,-0.60938 -2.2109,0 l -2.2344,2.2344 c -1.4531,-1.0898 -3.1367,-1.7891 -4.9336,-2.0469 l -0.5,-3.9492 c -0.10938,-0.85547 -0.89453,-1.457 -1.7461,-1.3555 -0.85547,0.10938 -1.4609,0.89063 -1.3555,1.7461 l 0.44922,3.5547 c -1.7969,0.25781 -3.4805,0.95703 -4.9336,2.0469 l -2.4922,-2.4922 c -0.60938,-0.60938 -1.5977,-0.60938 -2.2109,0 -0.60938,0.60938 -0.60938,1.5977 0,2.2109 l 2.4023,2.4062 -4.4023,4.4023003 -2.4023,-2.4062 c -0.60938,-0.60937 -1.5977,-0.60937 -2.2109,0 -0.60938,0.60938 -0.60938,1.5977 0,2.2109 l 2.4023,2.4062 -4.4023,4.4023 -2.4023,-2.4062 c -0.60937,-0.60938 -1.5977,-0.60938 -2.2109,0 -0.60938,0.60938 -0.60938,1.5977 0,2.2109 l 2.4023,2.4062 -4.4023,4.4023 -2.4062,-2.4062 c -0.60938,-0.60938 -1.5977,-0.60938 -2.2109,0 -0.60938,0.60938 -0.60938,1.5977 0,2.2109 l 2.4062,2.4062 -4.4023,4.4023 -2.4062,-2.4062 c -0.60938,-0.60938 -1.5977,-0.60938 -2.2109,0 -0.60938,0.60938 -0.60938,1.5977 0,2.2109 l 2.4062,2.4062 -6.9922,6.9922 -1.9648,-1.9648 c -2.1328,-2.1328 -5.6094,-2.125 -7.75,0.01953 l -1.8555,1.8555 -5.4922,-5.4922 c -1.6016,-1.6016 -4.3906,-1.6016 -5.9922,0 l -3.0312,3.0312 c -1.6523,1.6523 -1.6523,4.3398 0,5.9922 l 5.4922,5.4922 -0.65625,0.65625 c -1.0352,1.0312 -1.6016,2.4141 -1.6016,3.8867 v 7.5352 c -0.01953,0.91797 0.421207,2.332495 0.858707,3.144995 3.029957,3.353969 12.086718,12.689785 13.033539,13.444789 1.455735,1.160817 2.624126,1.707668 3.777784,1.609301 1.153657,-0.09837 2.29258,-0.841952 3.68938,-2.262005 z m 19.1994,-23.618 -12.023,12.023 c -0.625,0.625 -1.4883,0.875 -2.3594,0.67969 -0.875,-0.19531 -1.5547,-0.78516 -1.8516,-1.6094 l -2.3945,-6.7344 c -0.32422,-0.89844 -0.07813,-1.9648 0.61719,-2.6602 l 9.8555,-9.8555 c 0.47266,-0.47656 1.1094,-0.73437 1.7891,-0.73437 h 0.0078 c 0.6875,0 1.3359,0.26953 1.8203,0.75781 l 4.5391,4.5391 c 0.99219,0.99219 0.99219,2.6055 0,3.5977 z m 19.055,-45.668 c 1.4648,-1.4648003 3.418,-2.2734003 5.4922,-2.2734003 2.0742,0 4.0234,0.80859 5.4922,2.2734003 3.0273,3.0273 3.0273,7.9531 0,10.98 l -28.355,28.355 -4.0117,-4.0117 c -1.0742,-1.0742 -2.5039,-1.668 -4.0234,-1.6719 h -0.01563 c -1.5156,0 -2.9375,0.58594 -4,1.6523 l -2.1875,2.1875 -2.9414,-2.9414 z m -44.266,32.605 c 0.44922,-0.44922 1.043,-0.69922 1.6719,-0.70312 h 0.01172 c 0.62109,0 1.207,0.24219 1.6484,0.68359 l 7.1172,7.1172 -5.4609,5.4609 c -1.5547,1.5547 -2.0859,3.8828 -1.3516,5.9219 l 2.3984,6.7383 c 0.16016,0.4375 0.375,0.84375 0.625,1.2188 0.08203,0.12109 0.1875,0.22266 0.27734,0.33594 0.1875,0.23828 0.37891,0.47656 0.60156,0.67969 0.12891,0.11719 0.27344,0.21094 0.41016,0.31641 0.21875,0.16797 0.44141,0.32812 0.68359,0.46094 0.16406,0.08984 0.33594,0.15625 0.50781,0.23438 0.15625,0.06641 0.29687,0.15625 0.46094,0.21094 l -5.8047,5.8047 c -0.4375,0.44141 -1.0273,0.68359 -1.6523,0.68359 h -0.0078 c -0.625,0 -1.2109,-0.24219 -1.6523,-0.68359 l -12.023,-12.023 c -0.44922,-0.44922 -0.69922,-1.0469 -0.6875,-1.6758 v -7.5664 c 0,-0.64844 0.23828,-1.2266 0.6875,-1.6758 l 1.7109,-1.7109 c 0.01953,-0.01563 0.04297,-0.02344 0.0625,-0.03906 0.01562,-0.01563 0.02344,-0.04297 0.03906,-0.0625 l 5.6562,-5.6562 4.9219,4.9219 c 0.60938,0.60938 1.5977,0.60938 2.2109,0 0.60938,-0.60938 0.60938,-1.5977 0,-2.2109 l -4.9219,-4.9219 z m -16.367,0.96094 c -0.43359,-0.43359 -0.43359,-1.1406 0,-1.5703 l 3.0312,-3.0312 c 0.43359,-0.43359 1.1406,-0.43359 1.5703,0 l 5.4922,5.4922 -4.6016,4.6016 z"
       id="path1"
       sodipodi:nodetypes="ccscccscccccscccccscccccsccccsscccccsccccssccccccccsccccccccccccccsccccsccccsccssscccsccssccscccccsscscccscccscsccccccsscsccccccccccsssscscccccsccccccscccc"
       class="UnoptimicedTransforms"
       inkscape:label="chainsaw"
       transform="translate(-6,-8)" />
    <path
       style="fill:#2967a3;fill-opacity:1;stroke:#213f5c;stroke-width:2.19651;stroke-linecap:round;stroke-linejoin:round;stroke-dasharray:none;stroke-opacity:1"
       id="rect6"
       width="22.013523"
       height="19.117802"
       x="56.025459"
       y="40.913181"
       transform="rotate(41.510311,7.5549528,-11.916215)"
       inkscape:label="sleeve"
       clip-path="url(#clipPath3319)"
       inkscape:path-effect="#path-effect3323"
       d="M 56.025459,40.913181 H 78.038982 V 60.030983 H 56.025459 Z"
       sodipodi:type="rect" />
    <rect
       style="fill:#2967a3;fill-opacity:1;stroke:#213f5c;stroke-width:2.19651;stroke-linecap:round;stroke-linejoin:round;stroke-dasharray:none;stroke-opacity:1"
       id="rect7"
       width="27.049133"
       height="9.8458385"
       x="44.04298"
       y="34.167179"
       transform="rotate(41.510311)"
       inkscape:label="cuff" />
    <ellipse
       style="fill:#cccccc;fill-opacity:1;stroke:none;stroke-width:2.66667;stroke-linecap:round;stroke-linejoin:round;stroke-dasharray:none;stroke-opacity:1"
       id="path17"
       cx="22.804878"
       cy="72.548782"
       rx="1.902439"
       ry="1.8658537"
       inkscape:label="button" />
    <ellipse
       style="fill:#000000;fill-opacity:1;stroke-width:0.911115"
       id="path3308"
       cx="75.113144"
       cy="7.4339027"
       rx="2.2697239"
       ry="2.282506"
       inkscape:label="bar_hole" />
  </g>
</svg>
